<svg width="35" height="35" viewBox="0 0 35 35" fill="none" xmlns="http://www.w3.org/2000/svg">
<path d="M19.1 0C23.2667 0.4 26.8087 2.04133 29.726 4.924C32.642 7.808 34.3 11.3333 34.7 15.5H22.3C22 14.7667 21.5753 14.1333 21.026 13.6C20.4753 13.0667 19.8333 12.6667 19.1 12.4V0ZM20.5 1.6V11.4C21.0667 11.7333 21.5833 12.1247 22.05 12.574C22.5167 13.0247 22.9 13.5333 23.2 14.1H33.1C32.4333 10.9333 30.9587 8.208 28.676 5.924C26.392 3.64133 23.6667 2.2 20.5 1.6ZM15.7 0V12.4C14.6333 12.7667 13.7833 13.4 13.15 14.3C12.5167 15.2 12.2 16.2 12.2 17.3C12.2 18.4 12.5253 19.3833 13.176 20.25C13.8253 21.1167 14.6667 21.7333 15.7 22.1V34.6C11.2333 34.1333 7.5 32.258 4.5 28.974C1.5 25.6913 0 21.8 0 17.3C0 12.8 1.5 8.89133 4.5 5.574C7.5 2.258 11.2333 0.4 15.7 0ZM14.3 1.6C10.5333 2.3 7.442 4.13333 5.026 7.1C2.60867 10.0667 1.4 13.4667 1.4 17.3C1.4 21.1333 2.60867 24.5333 5.026 27.5C7.442 30.4667 10.5333 32.3 14.3 33V23C13.3 22.3333 12.4667 21.5087 11.8 20.526C11.1333 19.542 10.8 18.45 10.8 17.25C10.8 16.0833 11.1253 15 11.776 14C12.4253 13 13.2667 12.1667 14.3 11.5V1.6ZM22.3 19H34.7C34.3 23.1667 32.642 26.7087 29.726 29.626C26.8087 32.542 23.2667 34.2 19.1 34.6V22.1C19.8667 21.8333 20.5167 21.4333 21.05 20.9C21.5833 20.3667 22 19.7333 22.3 19ZM23.2 20.4C22.8333 20.9333 22.4333 21.4247 22 21.874C21.5667 22.3247 21.0667 22.7 20.5 23V33C23.7 32.3667 26.4333 30.9087 28.7 28.626C30.9667 26.342 32.4333 23.6 33.1 20.4H23.2Z" fill="#E6E6E6"/>
</svg>
