<svg width="14" height="17" viewBox="0 0 14 17" fill="none" xmlns="http://www.w3.org/2000/svg">
<path d="M6.66667 8.33333C7.125 8.33333 7.5175 8.17 7.84417 7.84333C8.17028 7.51722 8.33333 7.125 8.33333 6.66667C8.33333 6.20833 8.17028 5.81583 7.84417 5.48917C7.5175 5.16306 7.125 5 6.66667 5C6.20833 5 5.81611 5.16306 5.49 5.48917C5.16333 5.81583 5 6.20833 5 6.66667C5 7.125 5.16333 7.51722 5.49 7.84333C5.81611 8.17 6.20833 8.33333 6.66667 8.33333ZM6.66667 16.6667C4.43056 14.7639 2.76056 12.9964 1.65667 11.3642C0.552222 9.7325 0 8.22222 0 6.83333C0 4.75 0.670278 3.09028 2.01083 1.85417C3.35083 0.618055 4.90278 0 6.66667 0C8.43056 0 9.9825 0.618055 11.3225 1.85417C12.6631 3.09028 13.3333 4.75 13.3333 6.83333C13.3333 8.22222 12.7814 9.7325 11.6775 11.3642C10.5731 12.9964 8.90278 14.7639 6.66667 16.6667Z" fill="#E6E6E6" fill-opacity="0.51"/>
</svg>
